<?xml version="1.0" encoding="UTF-8" standalone="no"?>
<!-- Generator: Adobe Illustrator 15.1.0, SVG Export Plug-In . SVG Version: 6.00 Build 0)  -->

<svg
   xmlns:dc="http://purl.org/dc/elements/1.1/"
   xmlns:cc="http://creativecommons.org/ns#"
   xmlns:rdf="http://www.w3.org/1999/02/22-rdf-syntax-ns#"
   xmlns:svg="http://www.w3.org/2000/svg"
   xmlns="http://www.w3.org/2000/svg"
   xmlns:sodipodi="http://sodipodi.sourceforge.net/DTD/sodipodi-0.dtd"
   xmlns:inkscape="http://www.inkscape.org/namespaces/inkscape"
   version="1.1"
   id="Layer_1"
   x="0px"
   y="0px"
   width="960px"
   height="1110px"
   viewBox="1120.5 -668.5 960 1110"
   enable-background="new 1120.5 -668.5 960 1110"
   xml:space="preserve"
   inkscape:version="0.48.4 r9939"
   sodipodi:docname="neurons.svg"><metadata
     id="metadata3949"><rdf:RDF><cc:Work
         rdf:about=""><dc:format>image/svg+xml</dc:format><dc:type
           rdf:resource="http://purl.org/dc/dcmitype/StillImage" /><dc:title /></cc:Work></rdf:RDF></metadata><defs
     id="defs3947" /><sodipodi:namedview
     pagecolor="#ffffff"
     bordercolor="#666666"
     borderopacity="1"
     objecttolerance="10"
     gridtolerance="10"
     guidetolerance="10"
     inkscape:pageopacity="0"
     inkscape:pageshadow="2"
     inkscape:window-width="1535"
     inkscape:window-height="876"
     id="namedview3945"
     showgrid="false"
     inkscape:zoom="0.67477478"
     inkscape:cx="-8.6499683"
     inkscape:cy="561.97571"
     inkscape:window-x="65"
     inkscape:window-y="24"
     inkscape:window-maximized="1"
     inkscape:current-layer="g3917" /><g
     id="g5496"
     transform="matrix(0.85602052,0,0,0.89103088,251.2498,1331.0514)"><g
       transform="matrix(1.110324,0,0,1.1059893,-203.0364,-1246.6471)"
       id="g3903"
       image-rendering="optimizeQuality"
       shape-rendering="geometricPrecision"
       text-rendering="geometricPrecision"><rect
         id="rect3905"
         height="815.99902"
         width="816"
         y="643.55499"
         x="1217.437" /><rect
         style="fill:#ffffff"
         id="rect3907"
         height="555.117"
         width="781.21399"
         y="660.94702"
         x="1233.386" /><g
         id="g3909"><path
           style="fill:#ffffff"
           inkscape:connector-curvature="0"
           id="path3911"
           d="m 1345.687,998.502 c -0.311,-0.319 -0.625,-0.683 -0.946,-1.006 0.204,0.21 0.396,0.47 0.636,0.685 l 0.31,0.321 z" /></g><g
         id="g3913"><path
           style="fill:#ffffff"
           inkscape:connector-curvature="0"
           id="path3915"
           d="m 1733.6,1198.158 c -0.314,-0.321 -0.629,-0.681 -0.949,-1 0.197,0.21 0.399,0.47 0.637,0.677 l 0.312,0.323 z" /></g></g><text
       y="318.37628"
       x="1195.2269"
       id="text3937"
       transform="scale(1.0019577,0.99804608)"
       style="font-size:13.29785442px"><tspan
         style="font-size:231.14154053px;letter-spacing:70.92189026;fill:#ffffff;font-family:MyriadPro-Black"
         id="tspan3939"
         letter-spacing="64"
         font-size="208.5824"
         y="318.37628"
         x="1195.2269">N</tspan><tspan
         style="font-size:231.14154053px;letter-spacing:66.48927307;fill:#ffffff;font-family:MyriadPro-Black"
         id="tspan3941"
         letter-spacing="60"
         font-size="208.5824"
         y="318.37628"
         x="1429.832">ID</tspan><tspan
         style="font-size:231.14154053px;letter-spacing:80.89528656;fill:#ffffff;font-family:MyriadPro-Black"
         id="tspan3943"
         letter-spacing="73"
         font-size="208.5824"
         y="318.37628"
         x="1798.4996">M</tspan></text>
</g><g
     id="g3837"
     transform="matrix(0.61679298,0,0,0.5750216,45.741821,-141.6863)"><path
       style="fill:#ffffff"
       inkscape:connector-curvature="0"
       id="path3839"
       d="m 1334.703,-124.91 c -0.311,-0.319 -0.625,-0.683 -0.946,-1.006 0.204,0.21 0.396,0.47 0.636,0.685 l 0.31,0.321 z" /></g><g
     id="g5535"
     transform="matrix(0.85663461,0,0,0.85663461,1043.7846,14.678436)" /><g
     text-rendering="geometricPrecision"
     shape-rendering="geometricPrecision"
     image-rendering="optimizeQuality"
     id="g3877"><g
       id="g3879"><path
         fill="#FFFFFF"
         d="M2019.409-210.07c-0.311-0.319-0.625-0.683-0.946-1.006c0.204,0.21,0.396,0.47,0.636,0.685    L2019.409-210.07z"
         id="path3881" /></g><g
       id="g3883"><path
         fill="#FFFFFF"
         d="M2407.322-10.414c-0.314-0.321-0.629-0.681-0.949-1c0.197,0.21,0.399,0.47,0.637,0.677L2407.322-10.414z"
         id="path3885" /></g></g><path
     fill="#0C479C"
     d="M329.503,1846.657l-169.331-107.441l-49.852-96.325l-73.745-142.496l-85.758,125.143l-85.758,125.143  l159.502,17.35l102.159,11.113l175.119,111.114c5.069,3.217,11.786,1.714,15.004-3.355l16.015-25.239  C336.076,1856.593,334.574,1849.875,329.503,1846.657z"
     id="path3887" /><polyline
     fill="#FFFFFF"
     points="46.698,1566.967 34.594,1551.533 -20.388,1631.767 -85.01,1726.066 -37.429,1731.242   -52.136,1707.806 "
     id="polyline3889" /><polyline
     fill="#FFFFFF"
     points="491.041,1483.24 510.338,1479.726 464.98,1393.684 411.672,1292.557 384.915,1332.24   412.504,1330.152 "
     id="polyline3891" /><path
     fill="#0C479C"
     d="M129.566,1619.785l169.609-107.001l108.394-3.794l160.351-5.611l-76.357-131.09l-76.355-131.092  l-83.99,136.704l-53.796,87.556l-175.407,110.657c-5.078,3.205-6.596,9.918-3.394,14.997l15.948,25.28  C117.773,1621.469,124.486,1622.989,129.566,1619.785z"
     id="path3893" /><path
     fill="#0C479C"
     d="M406.746,1535.333l7.633,200.396l-51.021,95.711l-75.477,141.588l151.707-0.409l151.707-0.408  l-76.234-141.176l-48.824-90.422l-7.893-207.245c-0.23-6.001-5.279-10.677-11.279-10.45l-29.869,1.137  C411.195,1524.284,406.518,1529.332,406.746,1535.333z"
     id="path3895" /><path
     fill-rule="evenodd"
     clip-rule="evenodd"
     fill="#0C479C"
     d="M4223.674,179.627c56.602-100.239,207.578-142.691,355.76-85.32  c-17.87-38.182-33.487-119.259-22.564-187.999c-4.42-4.987-0.818-29.912,4.836-33.447c14.842-85.371,52.207-140.604,92.858-191.449  c-49.156,12.858-37.56,29.445-100.671,23.632c-4.984,4.419-29.914,0.821-33.447-4.834  c-67.674-14.509-100.967-54.712-121.473-104.474c-12.198-33.372-14.625-74.051-21.109-111.695  c-36.068,79.955-85.541,141.97-181.842,141.335c-9.956,3.724-40.148-0.646-48.649-7.034c-29.365-4.285-56.317-24.771-76.861-26.627  c40.157,57.68,75.998,118.58,75.694,206.498c4.002,7.96-0.059,36.071-6.15,42.57c-3.264,11.977-7.558,23.232-12.592,33.758  c-75.526,69.933-337.143,303.405-483.305,287.38c72.244,79.712,110.476,103.962,110.479,103.972  c-0.72-3.358,10.965-15.679,12.816-18.084c11.354-14.753,23.559-28.885,36.229-42.519c22.411-24.121,53.943-46.473,80.055-66.547  c36.877-28.354,69.883-51.958,111.59-72.44c51.91-25.493,103.512-51.224,157.552-71.707c7.923-3.006,16.134-3.032,25.168-2.176  c8.713,0.825,17.954,5.784,26.04,8.965c17.883,7.041,30.641,19.492,35.645,38.439c6.459,24.467,3.609,51.059-2.693,75.246   M4334.391-236.664c136.791-12.082,129.488,202.869-18.092,168.106C4222.262-81.623,4239.836-246.311,4334.391-236.664z"
     id="path3897" /><path
     fill-rule="evenodd"
     clip-rule="evenodd"
     fill="#0C479C"
     d="M3824.611,290.126c-115.066-3.422-222.931-117.271-241.145-275.123  c-25.472,33.591-89.953,85.159-155.873,107.495c-2.357,6.234-26.094,14.653-31.853,11.295  c-82.466,26.613-148.744,19.259-212.669,6.954c34.268,37.517,43.547,19.531,67.785,78.092c6.232,2.355,14.657,26.092,11.297,31.853  c18.667,66.644-1.412,114.831-35.903,156.146c-23.856,26.333-58.728,47.419-89.024,70.683c87.555-5.303,165.471,9.604,209.745,95.13  c7.931,7.076,18.12,35.83,16.427,46.326c9.88,27.985,4.296,61.373,12.219,80.419c32.354-62.394,69.559-122.466,147.51-163.131  c5.185-7.246,31.951-16.742,40.539-14.377c12.118-2.686,24.076-4.126,35.738-4.569c97.054,34.279,420.693,159.744,474.563,296.562  c53.122-86.928,61.163-151.314,61.173-151.319c-2.634,2.198-34.789,0.097-37.778-0.42c-18.344-3.183-36.528-7.404-54.497-12.269  c-31.779-8.604-62.871-19.69-92.795-33.454c-42.262-19.438-81.891-44.067-119.436-71.442  c-46.732-34.071-93.528-67.757-136.815-106.047c-6.348-5.614-10.194-12.868-13.642-21.263c-3.326-8.095-3.242-18.581-4.189-27.222  c-2.094-19.103,2.984-36.188,17.421-49.441c18.647-17.107,43.507-26.964,67.849-32.647 M3404.646,385.96  c-74.383-115.437,119.249-209.05,157.198-62.258C3594.062,413.009,3440.129,474.133,3404.646,385.96z"
     id="path3899" /><path
     fill-rule="evenodd"
     clip-rule="evenodd"
     fill="#0C479C"
     d="M4125.501,548.369c56.329,100.395,14.294,251.49-111.631,348.399  c41.912,4.534,119.325,33.246,172.422,78.247c6.558-1.19,26,14.82,26.087,21.487c65.285,56.98,93.115,117.58,115.491,178.71  c14.509-48.696-5.686-47.385,32.027-98.321c-1.19-6.558,14.815-26.003,21.483-26.09c47.511-50.323,99.157-57.931,152.336-49.645  c34.859,6.886,70.893,25.918,106.439,39.903c-49.641-72.317-76.992-146.782-26.484-228.779c1.98-10.444,21.381-33.986,31.25-37.941  c18.899-22.883,50.393-35.291,62.639-51.892c-70.145,4.402-140.797,3.45-215.803-42.424c-8.881-0.712-30.807-18.766-33.201-27.344  c-8.543-9.006-15.938-18.514-22.324-28.28c-20.603-100.848-86.376-426.329,3.155-542.968  c-105.625,20.407-135.474,41.549-135.483,41.544c3.24,1.125-1.096-2.83,0,0c6.721,17.362,12.471,35.126,17.555,53.033  c8.99,31.671,15.502,64.03,19.113,96.77c5.105,46.237,4.405,92.89,0.276,139.173c-5.138,57.604-9.908,115.064-20.437,171.89  c-1.543,8.333-5.777,15.364-11.199,22.645c-5.226,7.021-14.26,12.349-21.176,17.612c-15.297,11.635-32.557,16.079-51.352,10.531  c-24.269-7.174-45.52-23.406-62.93-41.345 M4423.942,858.994c-60.638,123.214-240.607,5.45-134.327-102.679  C4349.574,682.701,4481.246,783.169,4423.942,858.994z"
     id="path3901" /><g
     id="g5528"
     transform="matrix(1.3254293,0,0,1.3254293,-539.81929,-1276.0404)"><g
       style="fill:#ff0000"
       transform="matrix(0.57976404,0.07718726,-0.07718726,0.57976404,740.24968,173.39845)"
       id="g3917"><path
         sodipodi:type="arc"
         style="opacity:0.73000003999999996;fill:#f2f2f2;fill-opacity:1;stroke:none;stroke-width:5;stroke-miterlimit:4;stroke-opacity:1;stroke-dasharray:none"
         id="path3056"
         sodipodi:cx="410.50735"
         sodipodi:cy="543.88519"
         sodipodi:rx="318.62485"
         sodipodi:ry="318.62485"
         d="m 729.1322,543.88519 c 0,175.97165 -142.6532,318.62485 -318.62485,318.62485 -175.97164,0 -318.624843,-142.6532 -318.624843,-318.62485 0,-175.97164 142.653203,-318.62484 318.624843,-318.62484 175.97165,0 318.62485,142.6532 318.62485,318.62484 z"
         transform="matrix(1.2786794,-0.17023781,0.17023781,1.2786794,1052.1315,322.53001)" /><path
         style="fill:#000080;fill-rule:evenodd;fill-opacity:1"
         inkscape:connector-curvature="0"
         id="path3919"
         d="m 1744.14,880.671 c 23.729,-42.023 87.024,-59.821 149.147,-35.77 -7.49,-16.007 -12.0217,-49.74824 -9.459,-78.816 0.2454,-2.78302 1.3994,-11.29803 2.027,-14.021 8.1592,-35.39966 21.888,-58.948 38.93,-80.264 -20.607,5.392 -15.6396,10.45049 -42.205,9.908 -2.7926,-0.057 -11.3312,-1.2654 -14.021,-2.027 -27.9199,-7.90538 -42.33,-22.938 -50.926,-43.799 -5.116,-13.991 -6.133,-31.045 -8.851,-46.826 -15.121,33.521 -35.8782,58.078 -76.235,59.253 -4.4548,0.1297 -16.1056,-1.73885 -20.395,-2.948 -11.9759,-3.37588 -23.611,-10.387 -32.223,-11.164 16.834,24.182 28.5433,56.0031 31.732,86.572 0.6236,5.97831 -1.0895,12.02348 -2.578,17.847 -1.2468,4.87802 -2.0521,10.2872 -5.279,14.152 -50.3619,60.31739 -141.342,127.199 -202.62,120.481 30.289,33.418 46.315,43.583 46.317,43.588 -0.302,-1.407 4.596,-6.573 5.373,-7.581 4.76,-6.186 9.877,-12.11 15.189,-17.825 9.395,-10.112 22.613,-19.483 33.561,-27.899 15.461,-11.888 29.298,-21.783 46.783,-30.369 21.763,-10.688 43.396,-21.477 66.051,-30.063 3.322,-1.259 6.765,-1.271 10.553,-0.912 3.651,0.347 7.527,2.426 10.916,3.759 7.498,2.952 12.846,8.173 14.943,16.116 2.709,10.258 1.514,21.405 -1.129,31.545 m 40.816,-147.461 c 57.349,-5.064 54.286,85.05 -7.584,70.476 -39.424,-5.477 -32.058,-74.521 7.584,-70.476 z"
         clip-rule="evenodd"
         sodipodi:nodetypes="ccsscssccsscaaaccccccsccccccc"
         inkscape:export-filename="/home/vanessa/Documents/Dropbox/Code/nidm/nidm-api/nidm/static/img/neuronssmallwhite.png"
         inkscape:export-xdpi="24.953732"
         inkscape:export-ydpi="24.953732" /><path
         style="fill:#000080;fill-rule:evenodd;fill-opacity:1"
         inkscape:connector-curvature="0"
         id="path3921"
         d="m 1576.838,926.997 c -48.24,-1.435 -93.461,-49.165 -101.098,-115.342 -10.679,14.083 -38.4292,33.80153 -65.347,45.065 -2.5767,1.0782 -10.6515,4.02401 -13.353,4.736 -35.1297,9.25851 -62.361,8.073 -89.161,2.914 14.367,15.729 16.532,8.97524 28.419,32.738 1.2498,2.49839 4.1579,10.61931 4.736,13.354 6.0004,28.38686 -0.592,48.142 -15.053,65.463 -10.001,11.039 -24.619,19.88 -37.322,29.634 36.707,-2.225 68.1054,4.7091 87.934,39.881 2.1881,3.8813 5.9584,15.0614 6.886,19.422 2.589,12.17 1.802,25.73 5.124,33.715 13.562,-26.158 29.904,-49.9879 61.841,-68.391 3.2356,-1.8645 13.2622,-5.9698 16.995,-6.027 5.2034,-0.08 22.9953,-0.2853 27.6659,1.1683 41.2029,12.8236 163.6871,63.8867 186.2711,121.2457 22.271,-36.443 25.644,-63.438 25.647,-63.439 -1.104,0.922 -14.585,0.042 -15.839,-0.176 -7.691,-1.334 -15.314,-3.104 -22.848,-5.144 -13.322,-3.606 -26.357,-8.255 -38.902,-14.026 -17.719,-8.146 -34.332,-18.474 -50.072,-29.949 -19.592,-14.285 -39.211,-28.407 -57.358,-44.46 -2.661,-2.354 -4.274,-5.395 -5.72,-8.914 -1.394,-3.393 -1.357,-7.79 -1.756,-11.412 -0.879,-8.009 1.252,-15.172 7.304,-20.728 7.817,-7.173 18.24,-11.304 28.444,-13.688 m -149.505,32.537 c -31.184,-48.396 49.995,-87.641 65.906,-26.101 13.507,37.442 -51.029,63.066 -65.906,26.101 z"
         clip-rule="evenodd"
         sodipodi:nodetypes="ccsscssccsscsssccccccsccccccc"
         inkscape:export-filename="/home/vanessa/Documents/Dropbox/Code/nidm/nidm-api/nidm/static/img/neuronssmallwhite.png"
         inkscape:export-xdpi="24.953732"
         inkscape:export-ydpi="24.953732" /><path
         style="fill:#000080;fill-rule:evenodd;fill-opacity:1"
         inkscape:connector-curvature="0"
         id="path3923"
         d="m 1702.982,1035.263 c 23.615,42.089 5.992,105.434 -46.8,146.061 17.571,1.901 49.8312,18.8061 72.285,32.805 4.0081,2.4989 7.796,5.4814 10.938,9.008 19.7805,22.2018 39.038,49.294 48.417,74.923 6.084,-20.416 6.4785,-28.5509 13.43,-41.22 2.2717,-4.1401 5.1025,-8.2772 9.004,-10.938 18.4983,-12.6159 41.57,-24.286 63.867,-20.812 14.613,2.888 29.719,10.865 44.622,16.729 -20.812,-30.318 -31.0371,-60.8035 -11.103,-95.912 2.2006,-3.8758 9.8421,-12.8666 13.1,-15.906 9.0986,-8.4882 21.127,-14.796 26.262,-21.756 -29.407,1.846 -62.6859,-4.65 -90.473,-17.784 -5.4347,-2.5688 -9.9452,-6.9555 -13.92,-11.465 -5.5848,-6.3362 -11.2815,-13.2838 -13.5259,-21.4262 -19.3218,-70.09642 -32.0461,-169.1638 5.4899,-218.0628 -44.282,8.556 -56.795,17.42 -56.8,17.418 1.359,0.471 -0.459,-1.188 0,0 2.818,7.279 5.229,14.727 7.359,22.233 3.77,13.277 6.5,26.843 8.014,40.568 2.139,19.386 1.848,38.943 0.116,58.348 -2.155,24.149 -4.1557,48.2379 -8.567,72.062 -0.6467,3.4929 -2.4234,6.4407 -4.695,9.492 -2.1914,2.9437 -5.9786,5.1785 -8.879,7.385 -6.4116,4.8775 -13.648,6.74 -21.527,4.416 -10.176,-3.009 -19.086,-9.813 -26.383,-17.335 m 104.887,111.393 c -25.42,51.656 -100.871,2.285 -56.314,-43.047 25.136,-30.862 80.338,11.259 56.314,43.047 z"
         clip-rule="evenodd"
         sodipodi:nodetypes="ccaacaaccsscaaaccccccsssccccc"
         inkscape:export-filename="/home/vanessa/Documents/Dropbox/Code/nidm/nidm-api/nidm/static/img/neuronssmallwhite.png"
         inkscape:export-xdpi="24.953732"
         inkscape:export-ydpi="24.953732" /></g></g><path
     fill-rule="evenodd"
     clip-rule="evenodd"
     fill="#0C479C"
     d="M4223.674,179.627c56.602-100.239,207.578-142.691,355.76-85.32  c-17.87-38.182-33.487-119.259-22.564-187.999c-4.42-4.987-0.818-29.912,4.836-33.447c14.842-85.371,52.207-140.604,92.858-191.449  c-49.156,12.858-37.56,29.445-100.671,23.632c-4.984,4.419-29.914,0.821-33.447-4.834  c-67.674-14.509-100.967-54.712-121.473-104.474c-12.198-33.372-14.625-74.051-21.109-111.695  c-36.068,79.955-85.541,141.97-181.842,141.335c-9.956,3.724-40.148-0.646-48.649-7.034c-29.365-4.285-56.317-24.771-76.861-26.627  c40.157,57.68,75.998,118.58,75.694,206.498c4.002,7.96-0.059,36.071-6.15,42.57c-3.264,11.977-7.558,23.232-12.592,33.758  c-75.526,69.933-337.143,303.405-483.305,287.38c72.244,79.712,110.476,103.962,110.479,103.972  c-0.72-3.358,10.965-15.679,12.816-18.084c11.354-14.753,23.559-28.885,36.229-42.519c22.411-24.121,53.943-46.473,80.055-66.547  c36.877-28.354,69.883-51.958,111.59-72.44c51.91-25.493,103.512-51.224,157.552-71.707c7.923-3.006,16.134-3.032,25.168-2.176  c8.713,0.825,17.954,5.784,26.04,8.965c17.883,7.041,30.641,19.492,35.645,38.439c6.459,24.467,3.609,51.059-2.693,75.246   M4334.391-236.664c136.791-12.082,129.488,202.869-18.092,168.106C4222.262-81.623,4239.836-246.311,4334.391-236.664z"
     id="path3925" /><path
     fill-rule="evenodd"
     clip-rule="evenodd"
     fill="#0C479C"
     d="M3824.611,290.126c-115.066-3.422-222.931-117.271-241.145-275.123  c-25.472,33.591-89.953,85.159-155.873,107.495c-2.357,6.234-26.094,14.653-31.853,11.295  c-82.466,26.613-148.744,19.259-212.669,6.954c34.268,37.517,43.547,19.531,67.785,78.092c6.232,2.355,14.657,26.092,11.297,31.853  c18.667,66.644-1.412,114.831-35.903,156.146c-23.856,26.333-58.728,47.419-89.024,70.683c87.555-5.303,165.471,9.604,209.745,95.13  c7.931,7.076,18.12,35.83,16.427,46.326c9.88,27.985,4.296,61.373,12.219,80.419c32.354-62.394,69.559-122.466,147.51-163.131  c5.185-7.246,31.951-16.742,40.539-14.377c12.118-2.686,24.076-4.126,35.738-4.569c97.054,34.279,420.693,159.744,474.563,296.562  c53.122-86.928,61.163-151.314,61.173-151.319c-2.634,2.198-34.789,0.097-37.778-0.42c-18.344-3.183-36.528-7.404-54.497-12.269  c-31.779-8.604-62.871-19.69-92.795-33.454c-42.262-19.438-81.891-44.067-119.436-71.442  c-46.732-34.071-93.528-67.757-136.815-106.047c-6.348-5.614-10.194-12.868-13.642-21.263c-3.326-8.095-3.242-18.581-4.189-27.222  c-2.094-19.103,2.984-36.188,17.421-49.441c18.647-17.107,43.507-26.964,67.849-32.647 M3404.646,385.96  c-74.383-115.437,119.249-209.05,157.198-62.258C3594.062,413.009,3440.129,474.133,3404.646,385.96z"
     id="path3927" /><path
     fill-rule="evenodd"
     clip-rule="evenodd"
     fill="#0C479C"
     d="M4125.501,548.369c56.329,100.395,14.294,251.49-111.631,348.399  c41.912,4.534,119.325,33.246,172.422,78.247c6.558-1.19,26,14.82,26.087,21.487c65.285,56.98,93.115,117.58,115.491,178.71  c14.509-48.696-5.686-47.385,32.027-98.321c-1.19-6.558,14.815-26.003,21.483-26.09c47.511-50.323,99.157-57.931,152.336-49.645  c34.859,6.886,70.893,25.918,106.439,39.903c-49.641-72.317-76.992-146.782-26.484-228.779c1.98-10.444,21.381-33.986,31.25-37.941  c18.899-22.883,50.393-35.291,62.639-51.892c-70.145,4.402-140.797,3.45-215.803-42.424c-8.881-0.712-30.807-18.766-33.201-27.344  c-8.543-9.006-15.938-18.514-22.324-28.28c-20.603-100.848-86.376-426.329,3.155-542.968  c-105.625,20.407-135.474,41.549-135.483,41.544c3.24,1.125-1.096-2.83,0,0c6.721,17.362,12.471,35.126,17.555,53.033  c8.99,31.671,15.502,64.03,19.113,96.77c5.105,46.237,4.405,92.89,0.276,139.173c-5.138,57.604-9.908,115.064-20.437,171.89  c-1.543,8.333-5.777,15.364-11.199,22.645c-5.226,7.021-14.26,12.349-21.176,17.612c-15.297,11.635-32.557,16.079-51.352,10.531  c-24.269-7.174-45.52-23.406-62.93-41.345 M4423.942,858.994c-60.638,123.214-240.607,5.45-134.327-102.679  C4349.574,682.701,4481.246,783.169,4423.942,858.994z"
     id="path3929" /><path
     fill-rule="evenodd"
     clip-rule="evenodd"
     fill="#0C479C"
     d="M4223.674,179.627c56.602-100.239,207.578-142.691,355.76-85.32  c-17.87-38.182-33.487-119.259-22.564-187.999c-4.42-4.987-0.818-29.912,4.836-33.447c14.842-85.371,52.207-140.604,92.858-191.449  c-49.156,12.858-37.56,29.445-100.671,23.632c-4.984,4.419-29.914,0.821-33.447-4.834  c-67.674-14.509-100.967-54.712-121.473-104.474c-12.198-33.372-14.625-74.051-21.109-111.695  c-36.068,79.955-85.541,141.97-181.842,141.335c-9.956,3.724-40.148-0.646-48.649-7.034c-29.365-4.285-56.317-24.771-76.861-26.627  c40.157,57.68,75.998,118.58,75.694,206.498c4.002,7.96-0.059,36.071-6.15,42.57c-3.264,11.977-7.558,23.232-12.592,33.758  c-75.526,69.933-337.143,303.405-483.305,287.38c72.244,79.712,110.476,103.962,110.479,103.972  c-0.72-3.358,10.965-15.679,12.816-18.084c11.354-14.753,23.559-28.885,36.229-42.519c22.411-24.121,53.943-46.473,80.055-66.547  c36.877-28.354,69.883-51.958,111.59-72.44c51.91-25.493,103.512-51.224,157.552-71.707c7.923-3.006,16.134-3.032,25.168-2.176  c8.713,0.825,17.954,5.784,26.04,8.965c17.883,7.041,30.641,19.492,35.645,38.439c6.459,24.467,3.609,51.059-2.693,75.246   M4334.391-236.664c136.791-12.082,129.488,202.869-18.092,168.106C4222.262-81.623,4239.836-246.311,4334.391-236.664z"
     id="path3931" /><path
     fill-rule="evenodd"
     clip-rule="evenodd"
     fill="#0C479C"
     d="M3824.611,290.126c-115.066-3.422-222.931-117.271-241.145-275.123  c-25.472,33.591-89.953,85.159-155.873,107.495c-2.357,6.234-26.094,14.653-31.853,11.295  c-82.466,26.613-148.744,19.259-212.669,6.954c34.268,37.517,43.547,19.531,67.785,78.092c6.232,2.355,14.657,26.092,11.297,31.853  c18.667,66.644-1.412,114.831-35.903,156.146c-23.856,26.333-58.728,47.419-89.024,70.683c87.555-5.303,165.471,9.604,209.745,95.13  c7.931,7.076,18.12,35.83,16.427,46.326c9.88,27.985,4.296,61.373,12.219,80.419c32.354-62.394,69.559-122.466,147.51-163.131  c5.185-7.246,31.951-16.742,40.539-14.377c12.118-2.686,24.076-4.126,35.738-4.569c97.054,34.279,420.693,159.744,474.563,296.562  c53.122-86.928,61.163-151.314,61.173-151.319c-2.634,2.198-34.789,0.097-37.778-0.42c-18.344-3.183-36.528-7.404-54.497-12.269  c-31.779-8.604-62.871-19.69-92.795-33.454c-42.262-19.438-81.891-44.067-119.436-71.442  c-46.732-34.071-93.528-67.757-136.815-106.047c-6.348-5.614-10.194-12.868-13.642-21.263c-3.326-8.095-3.242-18.581-4.189-27.222  c-2.094-19.103,2.984-36.188,17.421-49.441c18.647-17.107,43.507-26.964,67.849-32.647 M3404.646,385.96  c-74.383-115.437,119.249-209.05,157.198-62.258C3594.062,413.009,3440.129,474.133,3404.646,385.96z"
     id="path3933" /><path
     fill-rule="evenodd"
     clip-rule="evenodd"
     fill="#0C479C"
     d="M4125.501,548.369c56.329,100.395,14.294,251.49-111.631,348.399  c41.912,4.534,119.325,33.246,172.422,78.247c6.558-1.19,26,14.82,26.087,21.487c65.285,56.98,93.115,117.58,115.491,178.71  c14.509-48.696-5.686-47.385,32.027-98.321c-1.19-6.558,14.815-26.003,21.483-26.09c47.511-50.323,99.157-57.931,152.336-49.645  c34.859,6.886,70.893,25.918,106.439,39.903c-49.641-72.317-76.992-146.782-26.484-228.779c1.98-10.444,21.381-33.986,31.25-37.941  c18.899-22.883,50.393-35.291,62.639-51.892c-70.145,4.402-140.797,3.45-215.803-42.424c-8.881-0.712-30.807-18.766-33.201-27.344  c-8.543-9.006-15.938-18.514-22.324-28.28c-20.603-100.848-86.376-426.329,3.155-542.968  c-105.625,20.407-135.474,41.549-135.483,41.544c3.24,1.125-1.096-2.83,0,0c6.721,17.362,12.471,35.126,17.555,53.033  c8.99,31.671,15.502,64.03,19.113,96.77c5.105,46.237,4.405,92.89,0.276,139.173c-5.138,57.604-9.908,115.064-20.437,171.89  c-1.543,8.333-5.777,15.364-11.199,22.645c-5.226,7.021-14.26,12.349-21.176,17.612c-15.297,11.635-32.557,16.079-51.352,10.531  c-24.269-7.174-45.52-23.406-62.93-41.345 M4423.942,858.994c-60.638,123.214-240.607,5.45-134.327-102.679  C4349.574,682.701,4481.246,783.169,4423.942,858.994z"
     id="path3935" /></svg>