<?xml version="1.0" encoding="UTF-8" standalone="no"?>
<!-- Generator: Adobe Illustrator 15.1.0, SVG Export Plug-In . SVG Version: 6.00 Build 0)  -->

<svg
   xmlns:dc="http://purl.org/dc/elements/1.1/"
   xmlns:cc="http://creativecommons.org/ns#"
   xmlns:rdf="http://www.w3.org/1999/02/22-rdf-syntax-ns#"
   xmlns:svg="http://www.w3.org/2000/svg"
   xmlns="http://www.w3.org/2000/svg"
   xmlns:sodipodi="http://sodipodi.sourceforge.net/DTD/sodipodi-0.dtd"
   xmlns:inkscape="http://www.inkscape.org/namespaces/inkscape"
   version="1.1"
   id="Layer_1"
   x="0px"
   y="0px"
   width="960px"
   height="1110px"
   viewBox="1120.5 -668.5 960 1110"
   enable-background="new 1120.5 -668.5 960 1110"
   xml:space="preserve"
   inkscape:version="0.48.4 r9939"
   sodipodi:docname="nidm_v_circle_nidm.svg"><metadata
     id="metadata3949"><rdf:RDF><cc:Work
         rdf:about=""><dc:format>image/svg+xml</dc:format><dc:type
           rdf:resource="http://purl.org/dc/dcmitype/StillImage" /><dc:title></dc:title></cc:Work></rdf:RDF></metadata><defs
     id="defs3947" /><sodipodi:namedview
     pagecolor="#ffffff"
     bordercolor="#666666"
     borderopacity="1"
     objecttolerance="10"
     gridtolerance="10"
     guidetolerance="10"
     inkscape:pageopacity="0"
     inkscape:pageshadow="2"
     inkscape:window-width="1535"
     inkscape:window-height="876"
     id="namedview3945"
     showgrid="false"
     inkscape:zoom="0.47713782"
     inkscape:cx="513.00557"
     inkscape:cy="561.97571"
     inkscape:window-x="65"
     inkscape:window-y="24"
     inkscape:window-maximized="1"
     inkscape:current-layer="g3857" /><g
     id="g5496"
     transform="matrix(0.85602052,0,0,0.89103088,251.2498,1331.0514)"><g
       transform="matrix(1.110324,0,0,1.1059893,-203.0364,-1246.6471)"
       id="g3903"
       image-rendering="optimizeQuality"
       shape-rendering="geometricPrecision"
       text-rendering="geometricPrecision"><rect
         id="rect3905"
         height="815.99902"
         width="816"
         y="643.55499"
         x="1217.437" /><rect
         style="fill:#ffffff"
         id="rect3907"
         height="555.117"
         width="781.21399"
         y="660.94702"
         x="1233.386" /><g
         id="g3909"><path
           style="fill:#ffffff"
           inkscape:connector-curvature="0"
           id="path3911"
           d="m 1345.687,998.502 c -0.311,-0.319 -0.625,-0.683 -0.946,-1.006 0.204,0.21 0.396,0.47 0.636,0.685 l 0.31,0.321 z" /></g><g
         id="g3913"><path
           style="fill:#ffffff"
           inkscape:connector-curvature="0"
           id="path3915"
           d="m 1733.6,1198.158 c -0.314,-0.321 -0.629,-0.681 -0.949,-1 0.197,0.21 0.399,0.47 0.637,0.677 l 0.312,0.323 z" /></g></g><text
       y="318.37628"
       x="1195.2269"
       id="text3937"
       transform="scale(1.0019577,0.99804608)"
       style="font-size:13.29785442px"><tspan
         style="font-size:231.14154053px;letter-spacing:70.92189026;fill:#ffffff;font-family:MyriadPro-Black"
         id="tspan3939"
         letter-spacing="64"
         font-size="208.5824"
         y="318.37628"
         x="1195.2269">N</tspan><tspan
         style="font-size:231.14154053px;letter-spacing:66.48927307;fill:#ffffff;font-family:MyriadPro-Black"
         id="tspan3941"
         letter-spacing="60"
         font-size="208.5824"
         y="318.37628"
         x="1429.832">ID</tspan><tspan
         style="font-size:231.14154053px;letter-spacing:80.89528656;fill:#ffffff;font-family:MyriadPro-Black"
         id="tspan3943"
         letter-spacing="73"
         font-size="208.5824"
         y="318.37628"
         x="1798.4996">M</tspan></text>
</g><g
     id="g3837"
     transform="matrix(0.61679298,0,0,0.5750216,45.741821,-141.6863)"><path
       style="fill:#ffffff"
       inkscape:connector-curvature="0"
       id="path3839"
       d="m 1334.703,-124.91 c -0.311,-0.319 -0.625,-0.683 -0.946,-1.006 0.204,0.21 0.396,0.47 0.636,0.685 l 0.31,0.321 z" /></g><g
     id="g5535"
     transform="matrix(0.85663461,0,0,0.85663461,1043.7846,14.678436)"><path
       sodipodi:nodetypes="ccccccccccccccccccccccccccc"
       style="fill:#0c479c;fill-rule:evenodd"
       inkscape:connector-curvature="0"
       id="path3855-4"
       d="m 696.50507,243.69556 c 62.3569,21.60066 18.0567,-66.35441 10.986,-107.78066 27.443,-10.15692 42.773,22.59575 100.325,20.43594 52.898,-1.99632 98.115,-29.54201 125.913,-59.186443 19.872,-21.10468 22.949,-46.07593 48.276,-64.186615 21.74693,-15.550033 43.21183,-26.6307465 50.92173,-54.156738 13.4109,-47.854588 18.2989,-103.612714 12.2429,-152.841194 -4.466,-36.27159 2.783,-90.27469 -18.1489,-121.4112 -13.1138,-19.48259 -33.78176,-33.64988 -48.50773,-51.96443 -11.58,-14.41743 -17.526,-32.54092 -29.046,-46.62055 -14.278,-17.439 -20.0423,-37.19221 -39.5583,-47.24374 -12.434,-6.40853 -9.8042,-6.00977 -20.5552,-14.98485 -11.572,-9.68221 -17.093,-27.25901 -30.613,-34.78239 -16.017,-8.90219 -39.251,-23.2003 -57.057,-26.88862 -44.897,-9.30205 -120.7345,12.69161 -166.3185,9.52034 -36.893,-2.56557 -74.775,-6.11798 -111.323,1.34435 -18.295,3.74052 -36.511,10.20812 -51.463,21.58922 -16.003,12.17294 -25.997,32.09774 -45.008,41.73266 -38.644,19.58898 -72.444,11.87748 -89.068,59.29183 -8.044,22.90894 -31.551,39.23899 -45.38,58.4084 -17.628,24.45715 -28.643,55.05494 -30.798,84.99877 -2.146,30.06497 13.1059,79.64472 23.7639,107.56367 8.267,21.64438 26.8338,46.212888 43.0318,63.361357 12.644,13.38333 52.6167,24.457998 70.0507,25.397559 57.284,3.094446 64.1976,-11.671761 96.2026,16.939087 21.01,41.807517 36.636,79.407694 91.504,78.885714 14.9,74.701033 84.05,157.613863 109.627,192.578533 z"
       clip-rule="evenodd" /><g
       transform="matrix(0.8743947,0.02010291,-0.02010291,0.8743947,-805.42298,-94.93782)"
       id="g4776"><path
         sodipodi:nodetypes="ccccccccccccccccccccccc"
         d="m 1859.7993,-46.722745 c -4.281,-2.265 -5.6758,-3.839663 -10.0568,-5.561663 l 0.1618,-0.607337 c 0,0 -27.951,-12.377 -30.39,-102.191905 -2.42,-89.823 26.638,-105.148 26.638,-105.148 l 0.062,0.0866 c 21.954,-11.259 36.6021,-28.96264 49.0621,-52.43764 32.473,-61.076 9.236,-136.928 -51.852,-169.401 -61.108,-32.44 -136.945,-9.267 -169.399,51.864 -13.341,25.074 -18.8424,51.82296 -14.6334,77.84096 l 0.2804,-1.38996 c 0,0 7.36,32.59 -69.055,80.024 -34.7789,21.54103 -84.3519,40.09688 -115.241,23.143 -61.102,-32.471 -136.959,-9.271 -169.419,51.841 -32.449,61.106 -9.237,136.933905 51.857,169.419905 45.548,24.1740038 99.251,17.436 137.095,-12.883 l -0.819,1.592 c 0,0 27.821,-22.887 107.979,20.15 63.28,33.958 72.677,67.243 73.88,79.743 -1.654,46.398095 22.531,91.919095 66.29,115.169095 61.093,32.479 136.948,9.253 169.4,-51.842 32.467,-61.093095 9.268,-136.961095 -51.84,-169.411095 z"
         id="path3853"
         style="fill:#ffffff"
         inkscape:connector-curvature="0" /><g
         text-rendering="geometricPrecision"
         shape-rendering="geometricPrecision"
         image-rendering="optimizeQuality"
         id="g3857"
         style="fill:#0c479c;fill-opacity:1"><path
           d="m 1711.0533,-30.224745 c -9.776,3.459 -37.695,7.289 -96.482,-24.24 -63.662,-34.182 -73.114,-62.733905 -74.495,-71.304905 0.905,-10.399 0.328,-20.78 -1.447,-30.899 l 0.389,0.583 c 0,0 -5.181,-27.774 67.663,-73.014 65.199,-40.465 94.837,-32.419 100.353,-30.303 3.55,2.412 7.229,4.658 11.087,6.711 7.34,3.896 14.904,6.958 22.562,9.215 8.968,8.54 25.471,32.78 27.185,96.521 1.751,64.226905 -17.112,88.992905 -27.398,97.746905 -10.605,4.803 -20.514,11.205 -29.417,18.984 z"
           id="path3859"
           style="fill:#0c479c;fill-opacity:1"
           inkscape:connector-curvature="0" /><g
           id="g3861"
           style="fill:#0c479c;fill-opacity:1"
           transform="translate(50.705016,-1.1657417)"><path
             d="m 1652.37,-426.639 c -35.188,38.493 -35.933,95.109 -2.025,127.146 -16.759,-16.141 -16.396,-49.725 0.536,-81.858 2.181,-2.882 8.487,-9.684 17.705,-6.587 0.925,0.315 1.545,0.398 1.9,0.346 2.086,0.452 4.227,0.713 6.434,0.619 14.007,-0.638 24.837,-12.483 24.203,-26.492 -0.284,-6.284 -2.892,-11.846 -6.92,-16.116 32.503,-21.293 69.804,-23.735 85.087,-9.774 l 0.583,0.041 c -34.912,-31.887 -91.987,-26.191 -127.503,12.675 z"
             id="path3863"
             style="fill:#0c479c;fill-opacity:1"
             inkscape:connector-curvature="0" /></g><g
           id="g3865"
           style="fill:#0c479c;fill-opacity:1"
           transform="translate(50.705016,-1.1657417)"><path
             d="m 1297.52,-70.887 c -0.3,-0.309 -0.604,-0.66 -0.914,-0.971 0.197,0.201 0.383,0.453 0.614,0.66 l 0.3,0.311 z"
             id="path3867"
             style="fill:#0c479c;fill-opacity:1"
             inkscape:connector-curvature="0" /><path
             d="m 1298.639,-199.002 c -35.193,38.493 -35.926,95.104 -2.033,127.147 -16.754,-16.141 -16.395,-49.727 0.539,-81.859 2.184,-2.888 8.497,-9.683 17.717,-6.587 0.918,0.317 1.536,0.393 1.896,0.345 2.083,0.447 4.229,0.715 6.431,0.612 14.009,-0.637 24.837,-12.483 24.205,-26.485 -0.29,-6.282 -2.896,-11.853 -6.908,-16.116 32.483,-21.293 69.791,-23.746 85.073,-9.781 l 0.577,0.049 c -34.902,-31.895 -91.99,-26.2 -127.497,12.675 z"
             id="path3869"
             style="fill:#0c479c;fill-opacity:1"
             inkscape:connector-curvature="0" /></g><g
           id="g3871"
           style="fill:#0c479c;fill-opacity:1"
           transform="translate(50.705016,-1.1657417)"><path
             d="m 1671.978,121.844 c -0.304,-0.311 -0.606,-0.656 -0.916,-0.965 0.19,0.203 0.386,0.453 0.614,0.652 l 0.302,0.313 z"
             id="path3873"
             style="fill:#0c479c;fill-opacity:1"
             inkscape:connector-curvature="0" /><path
             d="m 1673.098,-6.287 c -35.198,38.51 -35.933,95.123 -2.037,127.166 -16.761,-16.141 -16.393,-49.73 0.537,-81.859 2.184,-2.893 8.492,-9.684 17.718,-6.586 0.923,0.309 1.529,0.395 1.895,0.346 2.083,0.449 4.232,0.715 6.438,0.619 13.999,-0.643 24.823,-12.496 24.191,-26.514 -0.286,-6.277 -2.894,-11.84 -6.908,-16.111 32.495,-21.285 69.791,-23.734 85.08,-9.773 l 0.576,0.047 c -34.901,-31.892 -91.991,-26.193 -127.49,12.665 z"
             id="path3875"
             style="fill:#0c479c;fill-opacity:1"
             inkscape:connector-curvature="0" /></g></g></g></g><g
     text-rendering="geometricPrecision"
     shape-rendering="geometricPrecision"
     image-rendering="optimizeQuality"
     id="g3877"><g
       id="g3879"><path
         fill="#FFFFFF"
         d="M2019.409-210.07c-0.311-0.319-0.625-0.683-0.946-1.006c0.204,0.21,0.396,0.47,0.636,0.685    L2019.409-210.07z"
         id="path3881" /></g><g
       id="g3883"><path
         fill="#FFFFFF"
         d="M2407.322-10.414c-0.314-0.321-0.629-0.681-0.949-1c0.197,0.21,0.399,0.47,0.637,0.677L2407.322-10.414z"
         id="path3885" /></g></g><path
     fill="#0C479C"
     d="M329.503,1846.657l-169.331-107.441l-49.852-96.325l-73.745-142.496l-85.758,125.143l-85.758,125.143  l159.502,17.35l102.159,11.113l175.119,111.114c5.069,3.217,11.786,1.714,15.004-3.355l16.015-25.239  C336.076,1856.593,334.574,1849.875,329.503,1846.657z"
     id="path3887" /><polyline
     fill="#FFFFFF"
     points="46.698,1566.967 34.594,1551.533 -20.388,1631.767 -85.01,1726.066 -37.429,1731.242   -52.136,1707.806 "
     id="polyline3889" /><polyline
     fill="#FFFFFF"
     points="491.041,1483.24 510.338,1479.726 464.98,1393.684 411.672,1292.557 384.915,1332.24   412.504,1330.152 "
     id="polyline3891" /><path
     fill="#0C479C"
     d="M129.566,1619.785l169.609-107.001l108.394-3.794l160.351-5.611l-76.357-131.09l-76.355-131.092  l-83.99,136.704l-53.796,87.556l-175.407,110.657c-5.078,3.205-6.596,9.918-3.394,14.997l15.948,25.28  C117.773,1621.469,124.486,1622.989,129.566,1619.785z"
     id="path3893" /><path
     fill="#0C479C"
     d="M406.746,1535.333l7.633,200.396l-51.021,95.711l-75.477,141.588l151.707-0.409l151.707-0.408  l-76.234-141.176l-48.824-90.422l-7.893-207.245c-0.23-6.001-5.279-10.677-11.279-10.45l-29.869,1.137  C411.195,1524.284,406.518,1529.332,406.746,1535.333z"
     id="path3895" /><path
     fill-rule="evenodd"
     clip-rule="evenodd"
     fill="#0C479C"
     d="M4223.674,179.627c56.602-100.239,207.578-142.691,355.76-85.32  c-17.87-38.182-33.487-119.259-22.564-187.999c-4.42-4.987-0.818-29.912,4.836-33.447c14.842-85.371,52.207-140.604,92.858-191.449  c-49.156,12.858-37.56,29.445-100.671,23.632c-4.984,4.419-29.914,0.821-33.447-4.834  c-67.674-14.509-100.967-54.712-121.473-104.474c-12.198-33.372-14.625-74.051-21.109-111.695  c-36.068,79.955-85.541,141.97-181.842,141.335c-9.956,3.724-40.148-0.646-48.649-7.034c-29.365-4.285-56.317-24.771-76.861-26.627  c40.157,57.68,75.998,118.58,75.694,206.498c4.002,7.96-0.059,36.071-6.15,42.57c-3.264,11.977-7.558,23.232-12.592,33.758  c-75.526,69.933-337.143,303.405-483.305,287.38c72.244,79.712,110.476,103.962,110.479,103.972  c-0.72-3.358,10.965-15.679,12.816-18.084c11.354-14.753,23.559-28.885,36.229-42.519c22.411-24.121,53.943-46.473,80.055-66.547  c36.877-28.354,69.883-51.958,111.59-72.44c51.91-25.493,103.512-51.224,157.552-71.707c7.923-3.006,16.134-3.032,25.168-2.176  c8.713,0.825,17.954,5.784,26.04,8.965c17.883,7.041,30.641,19.492,35.645,38.439c6.459,24.467,3.609,51.059-2.693,75.246   M4334.391-236.664c136.791-12.082,129.488,202.869-18.092,168.106C4222.262-81.623,4239.836-246.311,4334.391-236.664z"
     id="path3897" /><path
     fill-rule="evenodd"
     clip-rule="evenodd"
     fill="#0C479C"
     d="M3824.611,290.126c-115.066-3.422-222.931-117.271-241.145-275.123  c-25.472,33.591-89.953,85.159-155.873,107.495c-2.357,6.234-26.094,14.653-31.853,11.295  c-82.466,26.613-148.744,19.259-212.669,6.954c34.268,37.517,43.547,19.531,67.785,78.092c6.232,2.355,14.657,26.092,11.297,31.853  c18.667,66.644-1.412,114.831-35.903,156.146c-23.856,26.333-58.728,47.419-89.024,70.683c87.555-5.303,165.471,9.604,209.745,95.13  c7.931,7.076,18.12,35.83,16.427,46.326c9.88,27.985,4.296,61.373,12.219,80.419c32.354-62.394,69.559-122.466,147.51-163.131  c5.185-7.246,31.951-16.742,40.539-14.377c12.118-2.686,24.076-4.126,35.738-4.569c97.054,34.279,420.693,159.744,474.563,296.562  c53.122-86.928,61.163-151.314,61.173-151.319c-2.634,2.198-34.789,0.097-37.778-0.42c-18.344-3.183-36.528-7.404-54.497-12.269  c-31.779-8.604-62.871-19.69-92.795-33.454c-42.262-19.438-81.891-44.067-119.436-71.442  c-46.732-34.071-93.528-67.757-136.815-106.047c-6.348-5.614-10.194-12.868-13.642-21.263c-3.326-8.095-3.242-18.581-4.189-27.222  c-2.094-19.103,2.984-36.188,17.421-49.441c18.647-17.107,43.507-26.964,67.849-32.647 M3404.646,385.96  c-74.383-115.437,119.249-209.05,157.198-62.258C3594.062,413.009,3440.129,474.133,3404.646,385.96z"
     id="path3899" /><path
     fill-rule="evenodd"
     clip-rule="evenodd"
     fill="#0C479C"
     d="M4125.501,548.369c56.329,100.395,14.294,251.49-111.631,348.399  c41.912,4.534,119.325,33.246,172.422,78.247c6.558-1.19,26,14.82,26.087,21.487c65.285,56.98,93.115,117.58,115.491,178.71  c14.509-48.696-5.686-47.385,32.027-98.321c-1.19-6.558,14.815-26.003,21.483-26.09c47.511-50.323,99.157-57.931,152.336-49.645  c34.859,6.886,70.893,25.918,106.439,39.903c-49.641-72.317-76.992-146.782-26.484-228.779c1.98-10.444,21.381-33.986,31.25-37.941  c18.899-22.883,50.393-35.291,62.639-51.892c-70.145,4.402-140.797,3.45-215.803-42.424c-8.881-0.712-30.807-18.766-33.201-27.344  c-8.543-9.006-15.938-18.514-22.324-28.28c-20.603-100.848-86.376-426.329,3.155-542.968  c-105.625,20.407-135.474,41.549-135.483,41.544c3.24,1.125-1.096-2.83,0,0c6.721,17.362,12.471,35.126,17.555,53.033  c8.99,31.671,15.502,64.03,19.113,96.77c5.105,46.237,4.405,92.89,0.276,139.173c-5.138,57.604-9.908,115.064-20.437,171.89  c-1.543,8.333-5.777,15.364-11.199,22.645c-5.226,7.021-14.26,12.349-21.176,17.612c-15.297,11.635-32.557,16.079-51.352,10.531  c-24.269-7.174-45.52-23.406-62.93-41.345 M4423.942,858.994c-60.638,123.214-240.607,5.45-134.327-102.679  C4349.574,682.701,4481.246,783.169,4423.942,858.994z"
     id="path3901" /><g
     id="g5528"
     transform="matrix(1.3254293,0,0,1.3254293,-527.24431,73.67447)"><path
       sodipodi:nodetypes="ccccccccccccccccccccccccccc"
       style="fill:#4d4d4d;fill-opacity:1;fill-rule:evenodd"
       inkscape:connector-curvature="0"
       id="path3855-4-4"
       d="m 1638.0181,1124.5565 c 42.9309,14.8715 12.4315,-45.6831 7.5635,-74.2039 18.8937,-6.9927 29.448,15.5565 69.0709,14.0696 36.4188,-1.3744 67.5494,-20.3389 86.6875,-40.7482 13.6813,-14.53 15.7998,-31.72198 33.2367,-44.19068 14.9722,-10.70575 29.7502,-18.33451 35.0583,-37.28537 9.2331,-32.94652 12.5984,-71.3344 8.429,-105.22681 -3.0747,-24.97195 1.916,-62.15155 -12.4951,-83.58815 -9.0286,-13.41321 -23.2579,-23.16699 -33.3964,-35.77603 -7.9725,-9.92599 -12.0661,-22.4035 -19.9973,-32.09692 -9.83,-12.00626 -13.7986,-25.60578 -27.2348,-32.52597 -8.5604,-4.41209 -6.7499,-4.13756 -14.1516,-10.31664 -7.967,-6.66593 -11.7681,-18.76706 -21.0762,-23.94669 -11.0273,-6.1289 -27.0232,-15.97275 -39.2821,-18.51205 -30.9103,-6.4042 -83.1223,8.73781 -114.5056,6.55448 -25.3998,-1.76632 -51.4805,-4.21205 -76.6427,0.92555 -12.5956,2.57524 -25.1368,7.028 -35.4308,14.86356 -11.0176,8.38073 -17.8982,22.09838 -30.9867,28.73175 -26.6053,13.48646 -49.8757,8.17731 -61.3208,40.82074 -5.5381,15.77215 -21.722,27.01493 -31.2429,40.21252 -12.1363,16.83805 -19.7199,37.90376 -21.2035,58.51923 -1.4775,20.69888 9.023,54.83312 16.3608,74.05452 5.6915,14.90154 18.4743,31.81627 29.6261,43.6225 8.7051,9.21403 36.2251,16.83862 48.2279,17.48548 39.4384,2.13044 44.1983,-8.03567 66.2328,11.66208 14.4648,28.78329 25.2228,54.66995 62.9979,54.31058 10.2582,51.42952 57.866,108.51262 75.4751,132.58482 z"
       clip-rule="evenodd" /><g
       style="fill:#ffffff"
       transform="matrix(0.57976404,0.07718726,-0.07718726,0.57976404,709.34771,138.75562)"
       id="g3917"><path
         style="fill:#ffffff;fill-rule:evenodd"
         inkscape:connector-curvature="0"
         id="path3919"
         d="m 1744.14,880.671 c 23.729,-42.023 87.024,-59.821 149.147,-35.77 -7.49,-16.007 -14.038,-49.997 -9.459,-78.816 -1.854,-2.09 -0.342,-12.539 2.027,-14.021 6.222,-35.791 21.888,-58.948 38.93,-80.264 -20.607,5.392 -15.746,12.344 -42.205,9.908 -2.09,1.853 -12.54,0.344 -14.021,-2.027 -28.373,-6.082 -42.33,-22.938 -50.926,-43.799 -5.116,-13.991 -6.133,-31.045 -8.851,-46.826 -15.121,33.521 -35.862,59.518 -76.235,59.253 -4.174,1.562 -16.832,-0.271 -20.395,-2.948 -12.312,-1.798 -23.611,-10.387 -32.223,-11.164 16.834,24.182 31.86,49.714 31.732,86.572 1.678,3.337 -0.025,15.122 -2.578,17.847 -1.369,5.021 -3.168,9.739 -5.279,14.152 -31.664,29.318 -141.342,127.199 -202.62,120.481 30.289,33.418 46.315,43.583 46.317,43.588 -0.302,-1.407 4.596,-6.573 5.373,-7.581 4.76,-6.186 9.877,-12.11 15.189,-17.825 9.395,-10.112 22.613,-19.483 33.561,-27.899 15.461,-11.888 29.298,-21.783 46.783,-30.369 21.763,-10.688 43.396,-21.477 66.051,-30.063 3.322,-1.259 6.765,-1.271 10.553,-0.912 3.651,0.347 7.527,2.426 10.916,3.759 7.498,2.952 12.846,8.173 14.943,16.116 2.709,10.258 1.514,21.405 -1.129,31.545 m 40.816,-147.461 c 57.349,-5.064 54.286,85.05 -7.584,70.476 -39.424,-5.477 -32.058,-74.521 7.584,-70.476 z"
         clip-rule="evenodd" /><path
         style="fill:#ffffff;fill-rule:evenodd"
         inkscape:connector-curvature="0"
         id="path3921"
         d="m 1576.838,926.997 c -48.24,-1.435 -93.461,-49.165 -101.098,-115.342 -10.679,14.083 -37.711,35.701 -65.347,45.065 -0.987,2.613 -10.94,6.144 -13.353,4.736 -34.574,11.156 -62.361,8.073 -89.161,2.914 14.367,15.729 18.257,8.188 28.419,32.738 2.613,0.988 6.145,10.94 4.736,13.354 7.825,27.939 -0.592,48.142 -15.053,65.463 -10.001,11.039 -24.619,19.88 -37.322,29.634 36.707,-2.225 69.371,4.025 87.934,39.881 3.324,2.967 7.598,15.021 6.886,19.422 4.144,11.732 1.802,25.73 5.124,33.715 13.562,-26.158 29.16,-51.344 61.841,-68.391 2.173,-3.037 13.396,-7.019 16.995,-6.027 5.081,-1.125 10.094,-1.73 14.982,-1.916 40.689,14.371 176.371,66.971 198.955,124.33 22.271,-36.443 25.644,-63.438 25.647,-63.439 -1.104,0.922 -14.585,0.042 -15.839,-0.176 -7.691,-1.334 -15.314,-3.104 -22.848,-5.144 -13.322,-3.606 -26.357,-8.255 -38.902,-14.026 -17.719,-8.146 -34.332,-18.474 -50.072,-29.949 -19.592,-14.285 -39.211,-28.407 -57.358,-44.46 -2.661,-2.354 -4.274,-5.395 -5.72,-8.914 -1.394,-3.393 -1.357,-7.79 -1.756,-11.412 -0.879,-8.009 1.252,-15.172 7.304,-20.728 7.817,-7.173 18.24,-11.304 28.444,-13.688 m -149.505,32.537 c -31.184,-48.396 49.995,-87.641 65.906,-26.101 13.507,37.442 -51.029,63.066 -65.906,26.101 z"
         clip-rule="evenodd" /><path
         style="fill:#ffffff;fill-rule:evenodd"
         inkscape:connector-curvature="0"
         id="path3923"
         d="m 1702.982,1035.263 c 23.615,42.089 5.992,105.434 -46.8,146.061 17.571,1.901 50.025,13.938 72.285,32.805 2.749,-0.499 10.901,6.214 10.938,9.008 27.368,23.89 39.038,49.294 48.417,74.923 6.084,-20.416 -2.383,-19.866 13.43,-41.22 -0.502,-2.749 6.21,-10.901 9.004,-10.938 19.918,-21.098 41.57,-24.286 63.867,-20.812 14.613,2.888 29.719,10.865 44.622,16.729 -20.812,-30.318 -32.277,-61.537 -11.103,-95.912 0.83,-4.379 8.964,-14.249 13.1,-15.906 7.924,-9.594 21.127,-14.796 26.262,-21.756 -29.407,1.846 -59.027,1.446 -90.473,-17.784 -3.723,-0.3 -12.915,-7.869 -13.92,-11.465 -3.581,-3.775 -6.682,-7.761 -9.359,-11.856 -8.637,-42.278 -36.213,-178.734 1.323,-227.633 -44.282,8.556 -56.795,17.42 -56.8,17.418 1.359,0.471 -0.459,-1.188 0,0 2.818,7.279 5.229,14.727 7.359,22.233 3.77,13.277 6.5,26.843 8.014,40.568 2.139,19.386 1.848,38.943 0.116,58.348 -2.155,24.149 -4.155,48.238 -8.567,72.062 -0.646,3.493 -2.423,6.441 -4.695,9.492 -2.191,2.944 -5.979,5.178 -8.879,7.385 -6.412,4.877 -13.648,6.74 -21.527,4.416 -10.176,-3.009 -19.086,-9.813 -26.383,-17.335 m 104.887,111.393 c -25.42,51.656 -100.871,2.285 -56.314,-43.047 25.136,-30.862 80.338,11.259 56.314,43.047 z"
         clip-rule="evenodd" /></g></g><path
     fill-rule="evenodd"
     clip-rule="evenodd"
     fill="#0C479C"
     d="M4223.674,179.627c56.602-100.239,207.578-142.691,355.76-85.32  c-17.87-38.182-33.487-119.259-22.564-187.999c-4.42-4.987-0.818-29.912,4.836-33.447c14.842-85.371,52.207-140.604,92.858-191.449  c-49.156,12.858-37.56,29.445-100.671,23.632c-4.984,4.419-29.914,0.821-33.447-4.834  c-67.674-14.509-100.967-54.712-121.473-104.474c-12.198-33.372-14.625-74.051-21.109-111.695  c-36.068,79.955-85.541,141.97-181.842,141.335c-9.956,3.724-40.148-0.646-48.649-7.034c-29.365-4.285-56.317-24.771-76.861-26.627  c40.157,57.68,75.998,118.58,75.694,206.498c4.002,7.96-0.059,36.071-6.15,42.57c-3.264,11.977-7.558,23.232-12.592,33.758  c-75.526,69.933-337.143,303.405-483.305,287.38c72.244,79.712,110.476,103.962,110.479,103.972  c-0.72-3.358,10.965-15.679,12.816-18.084c11.354-14.753,23.559-28.885,36.229-42.519c22.411-24.121,53.943-46.473,80.055-66.547  c36.877-28.354,69.883-51.958,111.59-72.44c51.91-25.493,103.512-51.224,157.552-71.707c7.923-3.006,16.134-3.032,25.168-2.176  c8.713,0.825,17.954,5.784,26.04,8.965c17.883,7.041,30.641,19.492,35.645,38.439c6.459,24.467,3.609,51.059-2.693,75.246   M4334.391-236.664c136.791-12.082,129.488,202.869-18.092,168.106C4222.262-81.623,4239.836-246.311,4334.391-236.664z"
     id="path3925" /><path
     fill-rule="evenodd"
     clip-rule="evenodd"
     fill="#0C479C"
     d="M3824.611,290.126c-115.066-3.422-222.931-117.271-241.145-275.123  c-25.472,33.591-89.953,85.159-155.873,107.495c-2.357,6.234-26.094,14.653-31.853,11.295  c-82.466,26.613-148.744,19.259-212.669,6.954c34.268,37.517,43.547,19.531,67.785,78.092c6.232,2.355,14.657,26.092,11.297,31.853  c18.667,66.644-1.412,114.831-35.903,156.146c-23.856,26.333-58.728,47.419-89.024,70.683c87.555-5.303,165.471,9.604,209.745,95.13  c7.931,7.076,18.12,35.83,16.427,46.326c9.88,27.985,4.296,61.373,12.219,80.419c32.354-62.394,69.559-122.466,147.51-163.131  c5.185-7.246,31.951-16.742,40.539-14.377c12.118-2.686,24.076-4.126,35.738-4.569c97.054,34.279,420.693,159.744,474.563,296.562  c53.122-86.928,61.163-151.314,61.173-151.319c-2.634,2.198-34.789,0.097-37.778-0.42c-18.344-3.183-36.528-7.404-54.497-12.269  c-31.779-8.604-62.871-19.69-92.795-33.454c-42.262-19.438-81.891-44.067-119.436-71.442  c-46.732-34.071-93.528-67.757-136.815-106.047c-6.348-5.614-10.194-12.868-13.642-21.263c-3.326-8.095-3.242-18.581-4.189-27.222  c-2.094-19.103,2.984-36.188,17.421-49.441c18.647-17.107,43.507-26.964,67.849-32.647 M3404.646,385.96  c-74.383-115.437,119.249-209.05,157.198-62.258C3594.062,413.009,3440.129,474.133,3404.646,385.96z"
     id="path3927" /><path
     fill-rule="evenodd"
     clip-rule="evenodd"
     fill="#0C479C"
     d="M4125.501,548.369c56.329,100.395,14.294,251.49-111.631,348.399  c41.912,4.534,119.325,33.246,172.422,78.247c6.558-1.19,26,14.82,26.087,21.487c65.285,56.98,93.115,117.58,115.491,178.71  c14.509-48.696-5.686-47.385,32.027-98.321c-1.19-6.558,14.815-26.003,21.483-26.09c47.511-50.323,99.157-57.931,152.336-49.645  c34.859,6.886,70.893,25.918,106.439,39.903c-49.641-72.317-76.992-146.782-26.484-228.779c1.98-10.444,21.381-33.986,31.25-37.941  c18.899-22.883,50.393-35.291,62.639-51.892c-70.145,4.402-140.797,3.45-215.803-42.424c-8.881-0.712-30.807-18.766-33.201-27.344  c-8.543-9.006-15.938-18.514-22.324-28.28c-20.603-100.848-86.376-426.329,3.155-542.968  c-105.625,20.407-135.474,41.549-135.483,41.544c3.24,1.125-1.096-2.83,0,0c6.721,17.362,12.471,35.126,17.555,53.033  c8.99,31.671,15.502,64.03,19.113,96.77c5.105,46.237,4.405,92.89,0.276,139.173c-5.138,57.604-9.908,115.064-20.437,171.89  c-1.543,8.333-5.777,15.364-11.199,22.645c-5.226,7.021-14.26,12.349-21.176,17.612c-15.297,11.635-32.557,16.079-51.352,10.531  c-24.269-7.174-45.52-23.406-62.93-41.345 M4423.942,858.994c-60.638,123.214-240.607,5.45-134.327-102.679  C4349.574,682.701,4481.246,783.169,4423.942,858.994z"
     id="path3929" /><path
     fill-rule="evenodd"
     clip-rule="evenodd"
     fill="#0C479C"
     d="M4223.674,179.627c56.602-100.239,207.578-142.691,355.76-85.32  c-17.87-38.182-33.487-119.259-22.564-187.999c-4.42-4.987-0.818-29.912,4.836-33.447c14.842-85.371,52.207-140.604,92.858-191.449  c-49.156,12.858-37.56,29.445-100.671,23.632c-4.984,4.419-29.914,0.821-33.447-4.834  c-67.674-14.509-100.967-54.712-121.473-104.474c-12.198-33.372-14.625-74.051-21.109-111.695  c-36.068,79.955-85.541,141.97-181.842,141.335c-9.956,3.724-40.148-0.646-48.649-7.034c-29.365-4.285-56.317-24.771-76.861-26.627  c40.157,57.68,75.998,118.58,75.694,206.498c4.002,7.96-0.059,36.071-6.15,42.57c-3.264,11.977-7.558,23.232-12.592,33.758  c-75.526,69.933-337.143,303.405-483.305,287.38c72.244,79.712,110.476,103.962,110.479,103.972  c-0.72-3.358,10.965-15.679,12.816-18.084c11.354-14.753,23.559-28.885,36.229-42.519c22.411-24.121,53.943-46.473,80.055-66.547  c36.877-28.354,69.883-51.958,111.59-72.44c51.91-25.493,103.512-51.224,157.552-71.707c7.923-3.006,16.134-3.032,25.168-2.176  c8.713,0.825,17.954,5.784,26.04,8.965c17.883,7.041,30.641,19.492,35.645,38.439c6.459,24.467,3.609,51.059-2.693,75.246   M4334.391-236.664c136.791-12.082,129.488,202.869-18.092,168.106C4222.262-81.623,4239.836-246.311,4334.391-236.664z"
     id="path3931" /><path
     fill-rule="evenodd"
     clip-rule="evenodd"
     fill="#0C479C"
     d="M3824.611,290.126c-115.066-3.422-222.931-117.271-241.145-275.123  c-25.472,33.591-89.953,85.159-155.873,107.495c-2.357,6.234-26.094,14.653-31.853,11.295  c-82.466,26.613-148.744,19.259-212.669,6.954c34.268,37.517,43.547,19.531,67.785,78.092c6.232,2.355,14.657,26.092,11.297,31.853  c18.667,66.644-1.412,114.831-35.903,156.146c-23.856,26.333-58.728,47.419-89.024,70.683c87.555-5.303,165.471,9.604,209.745,95.13  c7.931,7.076,18.12,35.83,16.427,46.326c9.88,27.985,4.296,61.373,12.219,80.419c32.354-62.394,69.559-122.466,147.51-163.131  c5.185-7.246,31.951-16.742,40.539-14.377c12.118-2.686,24.076-4.126,35.738-4.569c97.054,34.279,420.693,159.744,474.563,296.562  c53.122-86.928,61.163-151.314,61.173-151.319c-2.634,2.198-34.789,0.097-37.778-0.42c-18.344-3.183-36.528-7.404-54.497-12.269  c-31.779-8.604-62.871-19.69-92.795-33.454c-42.262-19.438-81.891-44.067-119.436-71.442  c-46.732-34.071-93.528-67.757-136.815-106.047c-6.348-5.614-10.194-12.868-13.642-21.263c-3.326-8.095-3.242-18.581-4.189-27.222  c-2.094-19.103,2.984-36.188,17.421-49.441c18.647-17.107,43.507-26.964,67.849-32.647 M3404.646,385.96  c-74.383-115.437,119.249-209.05,157.198-62.258C3594.062,413.009,3440.129,474.133,3404.646,385.96z"
     id="path3933" /><path
     fill-rule="evenodd"
     clip-rule="evenodd"
     fill="#0C479C"
     d="M4125.501,548.369c56.329,100.395,14.294,251.49-111.631,348.399  c41.912,4.534,119.325,33.246,172.422,78.247c6.558-1.19,26,14.82,26.087,21.487c65.285,56.98,93.115,117.58,115.491,178.71  c14.509-48.696-5.686-47.385,32.027-98.321c-1.19-6.558,14.815-26.003,21.483-26.09c47.511-50.323,99.157-57.931,152.336-49.645  c34.859,6.886,70.893,25.918,106.439,39.903c-49.641-72.317-76.992-146.782-26.484-228.779c1.98-10.444,21.381-33.986,31.25-37.941  c18.899-22.883,50.393-35.291,62.639-51.892c-70.145,4.402-140.797,3.45-215.803-42.424c-8.881-0.712-30.807-18.766-33.201-27.344  c-8.543-9.006-15.938-18.514-22.324-28.28c-20.603-100.848-86.376-426.329,3.155-542.968  c-105.625,20.407-135.474,41.549-135.483,41.544c3.24,1.125-1.096-2.83,0,0c6.721,17.362,12.471,35.126,17.555,53.033  c8.99,31.671,15.502,64.03,19.113,96.77c5.105,46.237,4.405,92.89,0.276,139.173c-5.138,57.604-9.908,115.064-20.437,171.89  c-1.543,8.333-5.777,15.364-11.199,22.645c-5.226,7.021-14.26,12.349-21.176,17.612c-15.297,11.635-32.557,16.079-51.352,10.531  c-24.269-7.174-45.52-23.406-62.93-41.345 M4423.942,858.994c-60.638,123.214-240.607,5.45-134.327-102.679  C4349.574,682.701,4481.246,783.169,4423.942,858.994z"
     id="path3935" /></svg>